<?xml version="1.0" encoding="UTF-8"?>
<svg id="uuid-de81072c-472d-4f79-b7aa-7db6a2ab1827" data-name="Camada 1" xmlns="http://www.w3.org/2000/svg" viewBox="0 0 765.84 462.86">
  <defs>
    <style>
      .uuid-38efe334-675a-47f8-8b29-721d12a81760 {
        fill: #5b5b57;
        stroke-width: 4px;
      }

      .uuid-38efe334-675a-47f8-8b29-721d12a81760, .uuid-4607490d-3124-4051-b205-2bc7b795192a {
        stroke: #18181c;
        stroke-miterlimit: 10;
      }

      .uuid-4607490d-3124-4051-b205-2bc7b795192a {
        fill: #b2b2b2;
        stroke-width: 3px;
      }
    </style>
  </defs>
  <path class="uuid-38efe334-675a-47f8-8b29-721d12a81760" d="M2,73.03v348.84c0,21.53,17.46,38.99,38.99,38.99h0c21.44,0,38.99-17.55,38.99-38.99V149.89c0-.61-.23-1.19-.65-1.63L6.06,71.4c-1.47-1.54-4.06-.5-4.06,1.63Z"/>
  <path class="uuid-4607490d-3124-4051-b205-2bc7b795192a" d="M198.64,250.2l-4.91-4.89c-.86-.86-.93-2.23-.15-3.17l37.36-45.19c.76-.92.71-2.27-.11-3.13L69.07,24.95s-.05-.06-.08-.09c-.6-.7-8.88-10.16-19.93-10.09-11.47.07-20.82-.78-30.52,5.41-9.64,6.14-22.3,14.93-13.94,36.14.11.28.28.54.48.76l190.12,202.75s19.86,20.48,49.4,20.41c29.54-.07,49.41-24.86,53.23-31.25,3.81-6.39,133.82-165.37,133.82-165.37-.71.35,19.34-12.22,27.02-12.61,4.3-.14,225.27-38.35,226.47,138.06-.16,175.93-115.8,165.63-217.32,166.92-1.28.02-2.34-.99-2.38-2.27l-9.56-286.96c-.05-1.46-1.4-2.54-2.83-2.24-16.34,3.41-42.98,41.82-70.87,76.91-.35.44-.53.98-.51,1.54l8.94,266.05c0,.09.01.18.02.26.27,1.73,3.62,19.23,28.94,17.88,26.18-1.39,151.49-5.89,155.73-6.04.08,0,.14,0,.22-.02,5.87-.79,248.39-35.09,175-302.55,0,0-31.75-145.13-299.54-136.71l-35.6,1.83c-.07,0-.14,0-.21.02-1.4.2-16.83,2.55-24.13,9.62-.08.08-.16.17-.23.26l-188.66,236.42c-.88,1.1-2.51,1.19-3.51.2Z"/>
</svg>